{"title":"WWE.Friday.Night.Smackdown.2011.01.07 XVID HDTV SAFCuk009","uid":6088222,"size":1334888051,"categoryP":"video","categoryS":"tv_shows","magnet":"?xt=urn:btih:42c60af95c110d4f42174a7e712a47ef5659c412&amp;dn=WWE.Friday.Night.Smackdown.2011.01.07+XVID+HDTV+SAFCuk009&amp;tr=udp%3A%2F%2Ftracker.openbittorrent.com%3A80&amp;tr=udp%3A%2F%2Fopen.demonii.com%3A1337&amp;tr=udp%3A%2F%2Ftracker.coppersurfer.tk%3A6969&amp;tr=udp%3A%2F%2Fexodus.desync.com%3A6969","seeders":1,"leechers":0,"uploader":"SAFCukO09","files":2,"time":1294428526,"description":"[center][img]http://img40.imageshack.us/img40/7637/wwefridaynightsmackdowns.jpg[/img][/center]\n\n[center]Format                           : AVI\nFormat/Info                      : Audio Video Interleave\nFormat profile                   : OpenDML\nFile size                        : 1.24 GiB\nDuration                         : 1h 23mn\nOverall bit rate                 : 2 134 Kbps\n\nVideo\nID                               : 0\nFormat                           : MPEG-4 Visual\nFormat profile                   : Simple@L3\nFormat settings, BVOP            : No\nFormat settings, QPel            : No\nFormat settings, GMC             : No warppoints\nFormat settings, Matrix          : Default (H.263)\nCodec ID                         : XVID\nCodec ID/Hint                    : XviD\nDuration                         : 1h 23mn\nBit rate                         : 2 000 Kbps\nWidth                            : 640 pixels\nHeight                           : 360 pixels\nDisplay aspect ratio             : 16:9\nFrame rate                       : 25.000 fps\nColor space                      : YUV\nChroma subsampling               : 4:2:0\nBit depth                        : 8 bits\nScan type                        : Progressive\nBits/(Pixel*Frame)               : 0.347\nStream size                      : 1.16 GiB (94%)\nWriting library                  : ZJMedia MPEG Encoder\n\nAudio\nID                               : 1\nFormat                           : MPEG Audio\nFormat version                   : Version 1\nFormat profile                   : Layer 3\nMode                             : Joint stereo\nMode extension                   : MS Stereo\nCodec ID                         : 55\nCodec ID/Hint                    : MP3\nDuration                         : 1h 23mn\nBit rate mode                    : Constant\nBit rate                         : 128 Kbps\nChannel(s)                       : 2 channels\nSampling rate                    : 44.1 KHz\nStream size                      : 76.4 MiB (6%)\nAlignment                        : Split accross interleaves\nInterleave, duration             : 1000 ms (25.00 video frames)\n\n[/center]\n\n[center][img]http://img205.imageshack.us/img205/91/vlcsnap2011010715h50m11.png[/img][/center]\n[center][img]http://img709.imageshack.us/img709/4458/vlcsnap2011010715h51m01.png[/img][/center]\n[center][img]http://img291.imageshack.us/img291/7255/vlcsnap2011010715h49m51.png[/img][/center]","torrent":{"xt":"urn:btih:42c60af95c110d4f42174a7e712a47ef5659c412","amp;dn":"WWE.Friday.Night.Smackdown.2011.01.07+XVID+HDTV+SAFCuk009","amp;tr":["udp%3A%2F%2Ftracker.openbittorrent.com%3A80","udp%3A%2F%2Fopen.demonii.com%3A1337","udp%3A%2F%2Ftracker.coppersurfer.tk%3A6969","udp%3A%2F%2Fexodus.desync.com%3A6969"],"infoHash":"42c60af95c110d4f42174a7e712a47ef5659c412","infoHashBuffer":{"type":"Buffer","data":[66,198,10,249,92,17,13,79,66,23,74,126,113,42,71,239,86,89,196,18]},"announce":[],"urlList":[]}}